<svg width="20" height="20" viewBox="0 0 20 20" fill="none" xmlns="http://www.w3.org/2000/svg">
<path d="M10 0.246826C4.4775 0.246826 0 4.7237 0 10.2468C0 14.665 2.86563 18.4137 6.83875 19.7356C7.33875 19.8281 7.5225 19.5187 7.5225 19.2543C7.5225 19.0162 7.51312 18.2281 7.50875 17.3925C4.72625 17.9974 4.13938 16.2125 4.13938 16.2125C3.68438 15.0568 3.02938 14.7493 3.02938 14.7493C2.12188 14.1287 3.09812 14.1412 3.09812 14.1412C4.10187 14.2118 4.63062 15.1718 4.63062 15.1718C5.5225 16.7006 6.97 16.2587 7.54062 16.0031C7.63 15.3568 7.88938 14.9156 8.17562 14.6656C5.95438 14.4131 3.61937 13.555 3.61937 9.7237C3.61937 8.63183 4.01 7.73995 4.65 7.03933C4.54625 6.78745 4.20375 5.77058 4.74687 4.39308C4.74687 4.39308 5.58688 4.12433 7.4975 5.41808C8.295 5.1962 9.15062 5.08558 10.0006 5.0812C10.85 5.08495 11.7063 5.1962 12.5056 5.41808C14.4144 4.12433 15.2525 4.39308 15.2525 4.39308C15.7969 5.77058 15.4544 6.78745 15.3506 7.03933C15.9919 7.73933 16.38 8.63183 16.38 9.7237C16.38 13.5643 14.0406 14.41 11.8138 14.6581C12.1725 14.9687 12.4919 15.5768 12.4919 16.51C12.4919 17.8481 12.48 18.9249 12.48 19.2543C12.48 19.5206 12.66 19.8325 13.1669 19.7343C17.1381 18.4106 20 14.6637 20 10.2468C20 4.7237 15.5225 0.246826 10 0.246826Z" fill="white" fill-opacity="0.8"/>
</svg>
