<svg width="108" height="60" viewBox="0 0 108 60" fill="none" xmlns="http://www.w3.org/2000/svg">
<g opacity="0.8">
<path d="M107.145 30.5371C107.163 30.4446 107.163 30.3337 107.182 30.2412C107.2 29.7789 107.163 29.3536 107.034 28.9098C106.997 28.7249 106.941 28.5399 106.867 28.355C106.738 28.0221 106.571 27.7078 106.349 27.4119C106.257 27.264 106.22 27.0975 106.09 26.9496L84.9024 1.68906C83.237 -0.28962 80.2578 -0.548513 78.2593 1.1158C76.2793 2.78011 76.0202 5.77587 77.6856 7.75455L96.3938 30.0378L77.7227 52.2471C76.0572 54.2258 76.3163 57.2215 78.2963 58.8859C80.2763 60.5502 83.274 60.2913 84.9394 58.3126L106.146 33.0521C106.368 32.7932 106.46 32.4788 106.608 32.2014C106.645 32.1459 106.664 32.0905 106.701 32.035C106.941 31.5542 107.089 31.0549 107.145 30.5371Z" fill="#00A6D1"/>
<path d="M10.8102 30.0193L29.5183 7.73602C31.1837 5.75734 30.9246 2.76158 28.9447 1.09727C26.9647 -0.567037 23.9669 -0.308144 22.3015 1.67054L1.09528 26.9311C0.984249 27.079 0.947239 27.2454 0.836212 27.3934C0.632662 27.6893 0.447616 28.0036 0.318084 28.3365C0.244066 28.5214 0.207057 28.7063 0.151543 28.8913C0.0405158 29.3351 -0.0149979 29.7604 0.00350662 30.2227C0.00350662 30.3337 0.0220112 30.4261 0.0405158 30.5186C0.0960295 31.0364 0.244066 31.5357 0.466121 32.0165C0.484625 32.0719 0.521635 32.1274 0.558644 32.1829C0.70668 32.4788 0.799203 32.7746 1.02126 33.0335L22.2275 58.2941C23.8929 60.2727 26.8906 60.5316 28.8706 58.8673C30.8506 57.203 31.1097 54.2073 29.4443 52.2286L10.8102 30.0193Z" fill="#00A6D1"/>
<path d="M81.9049 23.1771L76.1685 17.4445C73.0042 14.2823 67.8414 14.2823 64.6771 17.4445L53.1858 28.9282L41.6945 17.4445C38.5302 14.2823 33.3674 14.2823 30.2031 17.4445L24.4667 23.1771C21.3024 26.3393 21.3024 31.4987 24.4667 34.6609L47.4494 57.6284C50.6137 60.7905 55.7764 60.7905 58.9407 57.6284L64.6771 51.8957L81.9049 34.6794C85.0692 31.4987 85.0692 26.3393 81.9049 23.1771Z" fill="#E50A2F"/>
</g>
</svg>
