<svg width="580" height="325" fill="none" xmlns="http://www.w3.org/2000/svg"><path d="M579.019 165.134c.1-.5.1-1.1.2-1.6.1-2.5-.1-4.8-.8-7.2-.2-1-.5-2-.9-3-.7-1.8-1.6-3.5-2.8-5.1-.5-.8-.7-1.7-1.4-2.5l-114.5-136.6c-9-10.7-25.1-12.1-35.9-3.1-10.7 9-12.1 25.2-3.1 35.9l101.1 120.5-100.9 120.1c-9 10.7-7.6 26.9 3.1 35.9s26.9 7.6 35.9-3.1l114.6-136.6c1.2-1.4 1.7-3.1 2.5-4.6.2-.3.3-.6.5-.9 1.3-2.6 2.1-5.3 2.4-8.1zM58.419 162.334l101.1-120.5c9-10.7 7.6-26.9-3.1-35.9s-26.9-7.6-35.9 3.1l-114.6 136.6c-.6.8-.8 1.7-1.4 2.5-1.1 1.6-2.1 3.3-2.8 5.1-.4 1-.6 2-.9 3-.6 2.4-.9 4.7-.8 7.2 0 .6.1 1.1.2 1.6.3 2.8 1.1 5.5 2.3 8.1.1.3.3.6.5.9.8 1.6 1.3 3.2 2.5 4.6l114.6 136.6c9 10.7 25.2 12.1 35.9 3.1s12.1-25.2 3.1-35.9l-100.7-120.1z" fill="#03BBEB"/><path d="M442.619 125.334l-31-31c-17.1-17.1-45-17.1-62.1 0l-62.1 62.1-62.1-62.1c-17.1-17.1-45-17.1-62.1 0l-31 31c-17.1 17.1-17.1 45 0 62.1l124.2 124.2c17.1 17.1 45 17.1 62.1 0l31-31 93.1-93.1c17.1-17.2 17.1-45.1 0-62.2z" fill="#E50A2F"/></svg>