<svg width="20" height="17" viewBox="0 0 20 17" fill="none" xmlns="http://www.w3.org/2000/svg">
<path d="M19.9998 2.42188C19.2655 2.75 18.4723 2.96875 17.6442 3.06625C18.4917 2.55813 19.1405 1.75375 19.4486 0.796875C18.6555 1.26563 17.7767 1.60938 16.843 1.79313C16.093 0.99625 15.0267 0.5 13.8467 0.5C11.5811 0.5 9.74484 2.33625 9.74484 4.60188C9.74484 4.92188 9.77984 5.23438 9.85047 5.53563C6.44047 5.36375 3.41672 3.73063 1.39359 1.24688C1.04172 1.8525 0.839219 2.55938 0.839219 3.30938C0.839219 4.73125 1.56172 5.98875 2.66359 6.72375C1.99172 6.70438 1.35922 6.51688 0.804219 6.21188C0.804219 6.2275 0.804219 6.24688 0.804219 6.2625C0.804219 8.25063 2.21859 9.91125 4.09734 10.2856C3.75359 10.3794 3.39047 10.43 3.01547 10.43C2.74984 10.43 2.49609 10.4025 2.24234 10.3556C2.76609 11.9844 4.28172 13.1719 6.07422 13.2075C4.66797 14.3088 2.90234 14.9656 0.976719 14.9656C0.644844 14.9656 0.320469 14.9463 -0.00390625 14.9069C1.81672 16.075 3.97234 16.7506 6.28922 16.7506C13.8361 16.7506 17.9648 10.4969 17.9648 5.075C17.9648 4.89563 17.9611 4.71938 17.953 4.54375C18.7536 3.96938 19.4492 3.24625 19.9998 2.42188Z" fill="white" fill-opacity="0.8"/>
</svg>
